<svg xmlns="http://www.w3.org/2000/svg">
<symbol id="icon-instagram" viewBox="0 0 32 32">
<path d="M0 16c0-8.837 7.163-16 16-16s16 7.163 16 16-7.163 16-16 16-16-7.163-16-16zM16 7.467c-2.317 0-2.608 0.010-3.518 0.051-0.908 0.042-1.528 0.186-2.070 0.397-0.592 0.226-1.097 0.561-1.512 0.983l-0.001 0.001c-0.423 0.416-0.758 0.92-0.975 1.482l-0.010 0.029c-0.211 0.543-0.355 1.163-0.396 2.071-0.040 0.91-0.051 1.201-0.051 3.52 0 2.317 0.010 2.607 0.051 3.517 0.042 0.908 0.186 1.528 0.397 2.070 0.226 0.592 0.561 1.097 0.983 1.512l0.001 0.001c0.474 0.474 0.95 0.767 1.511 0.985 0.543 0.21 1.163 0.354 2.072 0.396 0.91 0.041 1.2 0.052 3.518 0.052 2.317 0 2.607-0.010 3.518-0.052 0.908-0.042 1.529-0.185 2.072-0.396 0.591-0.226 1.095-0.561 1.509-0.984l0.001-0.001c0.475-0.475 0.767-0.95 0.985-1.512 0.21-0.543 0.354-1.163 0.397-2.071 0.040-0.91 0.051-1.2 0.051-3.518s-0.010-2.608-0.051-3.518c-0.043-0.909-0.187-1.53-0.397-2.072-0.227-0.591-0.562-1.095-0.984-1.509l-0.001-0.001c-0.415-0.423-0.919-0.758-1.481-0.974l-0.029-0.010c-0.545-0.211-1.165-0.355-2.074-0.397-0.91-0.041-1.2-0.051-3.518-0.051h0.003z"></path>
<path d="M15.235 9.005h0.765c2.279 0 2.549 0.008 3.449 0.050 0.832 0.037 1.283 0.176 1.584 0.293 0.398 0.155 0.682 0.34 0.98 0.638 0.3 0.299 0.484 0.583 0.64 0.982 0.116 0.3 0.255 0.752 0.293 1.584 0.041 0.9 0.050 1.17 0.050 3.447s-0.009 2.547-0.050 3.447c-0.038 0.832-0.177 1.284-0.294 1.584-0.144 0.384-0.362 0.712-0.637 0.979l-0.001 0.001c-0.268 0.276-0.596 0.494-0.962 0.632l-0.018 0.006c-0.301 0.118-0.753 0.256-1.585 0.294-0.9 0.041-1.17 0.050-3.449 0.050s-2.548-0.009-3.448-0.050c-0.832-0.038-1.283-0.177-1.584-0.294-0.385-0.144-0.713-0.362-0.981-0.637l-0.001-0.001c-0.276-0.268-0.493-0.596-0.632-0.962l-0.006-0.018c-0.117-0.301-0.256-0.753-0.294-1.585-0.041-0.9-0.050-1.17-0.050-3.448 0-2.28 0.009-2.548 0.050-3.447 0.038-0.833 0.177-1.284 0.294-1.585 0.154-0.398 0.34-0.683 0.638-0.981s0.583-0.484 0.982-0.639c0.3-0.117 0.752-0.256 1.584-0.294 0.787-0.036 1.093-0.046 2.683-0.048v0.002zM20.555 10.422c-0.566 0-1.024 0.458-1.024 1.024s0.458 1.024 1.024 1.024v0c0.566 0 1.024-0.458 1.024-1.024s-0.458-1.024-1.024-1.024v0zM16 11.618c-2.42 0-4.383 1.962-4.383 4.383s1.962 4.383 4.383 4.383v0c2.42 0 4.383-1.962 4.383-4.383s-1.962-4.383-4.383-4.383v0z"></path>
<path d="M16 13.155c1.571 0 2.845 1.274 2.845 2.845s-1.274 2.845-2.845 2.845v0c-1.571 0-2.845-1.274-2.845-2.845s1.274-2.845 2.845-2.845v0z"></path>
</symbol>
<symbol id="icon-facebook" viewBox="0 0 32 32">
<path d="M0 16c0-8.837 7.163-16 16-16s16 7.163 16 16-7.163 16-16 16-16-7.163-16-16zM17.668 25.408v-8.705h2.403l0.318-3h-2.721l0.004-1.501c0-0.783 0.074-1.202 1.198-1.202h1.502v-3h-2.402c-2.887 0-3.903 1.455-3.903 3.902v1.801h-1.8v3h1.8v8.705z"></path>
</symbol>
<symbol id="icon-menu" viewBox="0 0 46 32">
<path d="M45.714 29.726c0 1.257-1.019 2.274-2.274 2.274h-18.309c-1.256 0-2.274-1.018-2.274-2.274s1.018-2.274 2.274-2.274h18.309c1.257 0 2.274 1.017 2.274 2.274zM45.714 16c0 1.257-1.019 2.274-2.274 2.274h-41.166c-1.256 0-2.274-1.018-2.274-2.274s1.018-2.274 2.274-2.274h41.166c1.257 0 2.274 1.019 2.274 2.274zM43.44 4.549c1.256 0 2.274-1.018 2.274-2.274s-1.018-2.274-2.274-2.274v0h-27.451c-1.256 0-2.274 1.018-2.274 2.274s1.018 2.274 2.274 2.274v0z"></path>
</symbol>
</svg>